<svg xmlns="http://www.w3.org/2000/svg" width="1024" height="48" viewBox="0 0 1024 48">
  <rect width="1024" height="48" fill="#aa9f8b"/>
  <rect x="0" y="1" width="1024" height="13" fill="#6c6252" fill-opacity="0.062"/>
  <rect x="0" y="11" width="1024" height="19" fill="#6c6252" fill-opacity="0.089"/>
  <rect x="0" y="39" width="1024" height="10" fill="#c8c0af" fill-opacity="0.087"/>
  <polyline points="0,4.4 21,4.7 43,4.9 64,5.1 85,5.2 107,5.2 128,5.2 149,5.0 171,4.8 192,4.6 213,4.2 235,3.8 256,3.4 277,3.0 299,2.5 320,2.1 341,1.7 363,1.3 384,0.9 405,0.6 427,0.4 448,0.3 469,0.2 491,0.2 512,0.3 533,0.4 555,0.7 576,1.0 597,1.3 619,1.7 640,2.1 661,2.6 683,3.0 704,3.4 725,3.9 747,4.2 768,4.6 789,4.8 811,5.0 832,5.2 853,5.2 875,5.2 896,5.1 917,4.9 939,4.7 960,4.4 981,4.0 1003,3.6" fill="none" stroke="#6c6252" stroke-opacity="0.098" stroke-width="1.09"/>
  <polyline points="0,10.0 21,9.5 43,8.9 64,8.3 85,7.6 107,7.0 128,6.3 149,5.7 171,5.1 192,4.6 213,4.1 235,3.8 256,3.5 277,3.3 299,3.3 320,3.4 341,3.5 363,3.8 384,4.2 405,4.7 427,5.2 448,5.8 469,6.4 491,7.1 512,7.8 533,8.4 555,9.0 576,9.6 597,10.1 619,10.5 640,10.9 661,11.1 683,11.3 704,11.3 725,11.2 747,11.0 768,10.7 789,10.3 811,9.8 832,9.2 853,8.6 875,8.0 896,7.3 917,6.7 939,6.0 960,5.4 981,4.8 1003,4.4" fill="none" stroke="#6c6252" stroke-opacity="0.084" stroke-width="2.30"/>
  <polyline points="0,9.4 21,9.4 43,9.4 64,9.6 85,9.8 107,10.2 128,10.7 149,11.2 171,11.8 192,12.5 213,13.1 235,13.8 256,14.5 277,15.1 299,15.6 320,16.1 341,16.5 363,16.8 384,17.0 405,17.1 427,17.0 448,16.8 469,16.6 491,16.2 512,15.7 533,15.2 555,14.6 576,13.9 597,13.3 619,12.6 640,12.0 661,11.3 683,10.8 704,10.3 725,9.9 747,9.6 768,9.4 789,9.4 811,9.4 832,9.6 853,9.8 875,10.2 896,10.7 917,11.2 939,11.8 960,12.5 981,13.1 1003,13.8" fill="none" stroke="#c8c0af" stroke-opacity="0.077" stroke-width="2.23"/>
  <polyline points="0,21.1 21,21.3 43,21.4 64,21.6 85,21.7 107,21.7 128,21.7 149,21.7 171,21.6 192,21.5 213,21.4 235,21.2 256,21.0 277,20.8 299,20.6 320,20.3 341,20.0 363,19.6 384,19.3 405,18.9 427,18.5 448,18.2 469,17.8 491,17.4 512,17.0 533,16.7 555,16.3 576,16.0 597,15.7 619,15.4 640,15.1 661,14.8 683,14.6 704,14.4 725,14.3 747,14.2 768,14.1 789,14.0 811,14.0 832,14.1 853,14.1 875,14.2 896,14.4 917,14.6 939,14.8 960,15.0 981,15.3 1003,15.6" fill="none" stroke="#6c6252" stroke-opacity="0.144" stroke-width="2.15"/>
  <polyline points="0,22.1 21,22.1 43,22.2 64,22.5 85,22.8 107,23.1 128,23.5 149,24.0 171,24.4 192,24.8 213,25.2 235,25.5 256,25.8 277,25.9 299,26.0 320,26.0 341,25.8 363,25.6 384,25.3 405,25.0 427,24.6 448,24.2 469,23.7 491,23.3 512,22.9 533,22.6 555,22.3 576,22.1 597,22.1 619,22.1 640,22.2 661,22.4 683,22.6 704,23.0 725,23.4 747,23.8 768,24.2 789,24.7 811,25.1 832,25.4 853,25.7 875,25.9 896,26.0 917,26.0 939,25.9 960,25.7 981,25.5 1003,25.1" fill="none" stroke="#6c6252" stroke-opacity="0.069" stroke-width="2.28"/>
  <polyline points="0,29.8 21,29.9 43,30.0 64,30.2 85,30.3 107,30.4 128,30.6 149,30.7 171,30.8 192,30.9 213,31.0 235,31.1 256,31.1 277,31.2 299,31.2 320,31.2 341,31.2 363,31.2 384,31.2 405,31.1 427,31.0 448,31.0 469,30.9 491,30.8 512,30.7 533,30.5 555,30.4 576,30.3 597,30.1 619,30.0 640,29.9 661,29.8 683,29.7 704,29.5 725,29.5 747,29.4 768,29.3 789,29.3 811,29.2 832,29.2 853,29.2 875,29.2 896,29.2 917,29.3 939,29.4 960,29.4 981,29.5 1003,29.6" fill="none" stroke="#c8c0af" stroke-opacity="0.077" stroke-width="1.04"/>
  <polyline points="0,37.6 21,37.9 43,38.0 64,38.2 85,38.2 107,38.1 128,38.0 149,37.8 171,37.5 192,37.1 213,36.7 235,36.3 256,35.9 277,35.4 299,35.0 320,34.6 341,34.2 363,33.9 384,33.7 405,33.5 427,33.4 448,33.4 469,33.5 491,33.7 512,33.9 533,34.2 555,34.6 576,35.0 597,35.4 619,35.8 640,36.3 661,36.7 683,37.1 704,37.5 725,37.7 747,38.0 768,38.1 789,38.2 811,38.2 832,38.1 853,37.9 875,37.6 896,37.3 917,36.9 939,36.5 960,36.1 981,35.6 1003,35.2" fill="none" stroke="#c8c0af" stroke-opacity="0.078" stroke-width="1.68"/>
  <polyline points="0,43.5 21,44.0 43,44.5 64,45.0 85,45.5 107,45.8 128,46.1 149,46.4 171,46.5 192,46.6 213,46.6 235,46.5 256,46.3 277,46.1 299,45.8 320,45.4 341,44.9 363,44.4 384,43.9 405,43.3 427,42.7 448,42.1 469,41.5 491,41.0 512,40.4 533,39.9 555,39.4 576,39.0 597,38.7 619,38.4 640,38.2 661,38.1 683,38.1 704,38.2 725,38.3 747,38.5 768,38.8 789,39.2 811,39.6 832,40.1 853,40.6 875,41.2 896,41.7 917,42.3 939,42.9 960,43.5 981,44.1 1003,44.6" fill="none" stroke="#6c6252" stroke-opacity="0.128" stroke-width="2.16"/>
  <circle cx="818" cy="21" r="0.9" fill="#000000" fill-opacity="0.100"/>
  <circle cx="787" cy="36" r="1.4" fill="#000000" fill-opacity="0.092"/>
  <circle cx="564" cy="38" r="0.9" fill="#000000" fill-opacity="0.085"/>
  <circle cx="270" cy="34" r="1.2" fill="#000000" fill-opacity="0.075"/>
  <circle cx="54" cy="15" r="1.2" fill="#000000" fill-opacity="0.048"/>
  <circle cx="590" cy="30" r="1.7" fill="#ffffff" fill-opacity="0.096"/>
  <circle cx="429" cy="36" r="1.5" fill="#000000" fill-opacity="0.043"/>
  <circle cx="427" cy="5" r="1.0" fill="#000000" fill-opacity="0.104"/>
  <circle cx="800" cy="23" r="1.3" fill="#000000" fill-opacity="0.078"/>
  <circle cx="604" cy="47" r="1.0" fill="#000000" fill-opacity="0.112"/>
  <circle cx="994" cy="1" r="0.9" fill="#000000" fill-opacity="0.051"/>
  <circle cx="493" cy="0" r="0.9" fill="#000000" fill-opacity="0.107"/>
  <circle cx="49" cy="35" r="0.6" fill="#000000" fill-opacity="0.045"/>
  <circle cx="552" cy="29" r="1.1" fill="#000000" fill-opacity="0.096"/>
  <circle cx="174" cy="8" r="1.2" fill="#ffffff" fill-opacity="0.091"/>
  <circle cx="756" cy="44" r="1.0" fill="#000000" fill-opacity="0.115"/>
  <circle cx="222" cy="44" r="1.0" fill="#000000" fill-opacity="0.098"/>
  <circle cx="682" cy="44" r="0.9" fill="#000000" fill-opacity="0.094"/>
  <circle cx="461" cy="2" r="0.9" fill="#000000" fill-opacity="0.048"/>
  <circle cx="226" cy="43" r="0.6" fill="#ffffff" fill-opacity="0.074"/>
  <circle cx="565" cy="43" r="1.0" fill="#000000" fill-opacity="0.089"/>
  <ellipse cx="824" cy="37" rx="91" ry="3" fill="#000000" fill-opacity="0.022"/>
  <ellipse cx="382" cy="16" rx="86" ry="8" fill="#000000" fill-opacity="0.049"/>
  <ellipse cx="740" cy="9" rx="99" ry="3" fill="#000000" fill-opacity="0.022"/>
  <ellipse cx="779" cy="2" rx="79" ry="8" fill="#000000" fill-opacity="0.025"/>
  <ellipse cx="491" cy="1" rx="98" ry="9" fill="#000000" fill-opacity="0.028"/>
  <ellipse cx="378" cy="21" rx="62" ry="5" fill="#000000" fill-opacity="0.045"/>
  <ellipse cx="18" cy="4" rx="81" ry="5" fill="#000000" fill-opacity="0.038"/>
  <ellipse cx="35" cy="30" rx="87" ry="8" fill="#000000" fill-opacity="0.029"/>
  <line x1="58" y1="25" x2="121" y2="29" stroke="#ffffff" stroke-opacity="0.105" stroke-width="0.8"/>
  <line x1="600" y1="37" x2="658" y2="31" stroke="#ffffff" stroke-opacity="0.122" stroke-width="0.8"/>
  <line x1="385" y1="14" x2="512" y2="25" stroke="#ffffff" stroke-opacity="0.126" stroke-width="1.2"/>
  <line x1="262" y1="20" x2="357" y2="5" stroke="#000000" stroke-opacity="0.139" stroke-width="0.9"/>
  <line x1="131" y1="28" x2="191" y2="19" stroke="#ffffff" stroke-opacity="0.095" stroke-width="0.6"/>
  <line x1="990" y1="6" x2="1026" y2="11" stroke="#ffffff" stroke-opacity="0.135" stroke-width="0.9"/>
  <line x1="341" y1="1" x2="381" y2="-0" stroke="#000000" stroke-opacity="0.099" stroke-width="1.1"/>
  <line x1="947" y1="18" x2="1075" y2="17" stroke="#ffffff" stroke-opacity="0.110" stroke-width="1.0"/>
  <line x1="533" y1="22" x2="619" y2="33" stroke="#000000" stroke-opacity="0.055" stroke-width="1.1"/>
  <rect x="0" y="0" width="1024" height="48" fill="none" stroke="#000000" stroke-opacity="0.19" stroke-width="6"/>
</svg>
