<svg xmlns="http://www.w3.org/2000/svg" width="512" height="512" viewBox="0 0 512 512">
  <!-- ===== Boxing Day :: Regular box LEFT side ===== -->
  <defs>
    <pattern id="cor_reg" width="12" height="20" patternUnits="userSpaceOnUse">
      <rect width="12" height="20" fill="#b8945f"/>
      <rect x="0" width="6" height="20" fill="#a9854f"/>
    </pattern>
    <pattern id="speck_reg" width="40" height="40" patternUnits="userSpaceOnUse">
      <circle cx="6"  cy="9"  r="1.4" fill="#000000" fill-opacity="0.086"/>
      <circle cx="24" cy="16" r="1.1" fill="#000000" fill-opacity="0.071"/>
      <circle cx="14" cy="31" r="1.6" fill="#000000" fill-opacity="0.059"/>
      <circle cx="33" cy="35" r="1.1" fill="#000000" fill-opacity="0.078"/>
      <circle cx="37" cy="6"  r="1.0" fill="#000000" fill-opacity="0.063"/>
    </pattern>
  </defs>

  <!-- base cardboard -->
  <rect width="512" height="512" fill="#cda874"/>
  <rect width="512" height="512" fill="url(#speck_reg)"/>

  <!-- corrugated cut edges (top/bottom) -->
  <rect x="0" y="0"   width="512" height="20" fill="url(#cor_reg)"/>
  <rect x="0" y="492" width="512" height="20" fill="url(#cor_reg)"/>

  <!-- packing tape across the upper third (wraps around) -->
  <rect x="0" y="118" width="512" height="56" fill="#e7dbb6" opacity="0.85"/>
  <rect x="0" y="118" width="512" height="4" fill="#000000" fill-opacity="0.133"/>
  <rect x="0" y="170" width="512" height="4" fill="#000000" fill-opacity="0.133"/>
  <rect x="0" y="127" width="512" height="2" fill="#ffffff" fill-opacity="0.267"/>

  <!-- punched hand-hole (lift here) -->
  <g>
    <rect x="186" y="248" width="140" height="46" rx="23" fill="#3a2e1c"/>
    <rect x="186" y="248" width="140" height="12" rx="6" fill="#000000" fill-opacity="0.251"/>
    <rect x="192" y="284" width="128" height="6" rx="3" fill="#ffffff" fill-opacity="0.094"/>
  </g>
  <text x="256" y="330" text-anchor="middle" font-family="Arial, Helvetica, sans-serif" font-size="14" font-weight="700" fill="#2b2b2b" letter-spacing="3">LIFT HERE</text>

  <!-- vertical company stamp along the left edge -->
  <text x="40" y="256" text-anchor="middle" transform="rotate(-90 40 256)" font-family="Arial, Helvetica, sans-serif" font-size="18" font-weight="700" fill="#3a5a78" letter-spacing="6">CARTWRIGHT TRADING CO.</text>

  <!-- small id stamp -->
  <text x="472" y="430" text-anchor="end" font-family="monospace" font-size="16" fill="#2b2b2b">CT-0042</text>

  <!-- corner scuffs -->
  <path d="M0 0 L64 0 L0 64 Z" fill="#000000" fill-opacity="0.063"/>
  <path d="M512 512 L448 512 L512 448 Z" fill="#000000" fill-opacity="0.063"/>

  <!-- box edge -->
  <rect x="2" y="2" width="508" height="508" fill="none" stroke="#9c7c4d" stroke-width="4"/>
</svg>
